<svg width="45" height="45" viewBox="0 0 45 45" fill="none" xmlns="http://www.w3.org/2000/svg">
<path d="M23.55 4.06875C23.2399 3.85917 22.8743 3.74718 22.5 3.74718C22.1258 3.74718 21.7601 3.85917 21.45 4.06875C20.8875 4.44375 7.96875 13.4438 7.96875 26.7188C7.96875 30.5727 9.49972 34.2688 12.2249 36.9939C14.95 39.719 18.6461 41.25 22.5 41.25C26.3539 41.25 30.05 39.719 32.7752 36.9939C35.5003 34.2688 37.0313 30.5727 37.0313 26.7188C37.0313 13.2188 24.0938 4.425 23.55 4.06875ZM22.5 37.5C19.6422 37.495 16.9028 36.3576 14.882 34.3368C12.8612 32.316 11.7237 29.5766 11.7188 26.7188C11.7188 17.3438 19.6125 10.275 22.5 7.96875C25.4063 10.2375 33.2813 17.3438 33.2813 26.7188C33.2763 29.5766 32.1388 32.316 30.118 34.3368C28.0972 36.3576 25.3578 37.495 22.5 37.5Z" fill="#555555"/>
</svg>
