<svg width="45" height="45" viewBox="0 0 45 45" fill="none" xmlns="http://www.w3.org/2000/svg">
<g clip-path="url(#clip0_6_173)">
<path d="M12.7642 0C13.182 0 13.5826 0.165937 13.8779 0.461307C14.1733 0.756677 14.3393 1.15728 14.3393 1.575V4.52025H31.2525V1.59525C31.2525 1.17753 31.4184 0.776927 31.7138 0.481557C32.0092 0.186187 32.4098 0.02025 32.8275 0.02025C33.2452 0.02025 33.6458 0.186187 33.9412 0.481557C34.2366 0.776927 34.4025 1.17753 34.4025 1.59525V4.52025H40.5C41.6931 4.52025 42.8373 4.99405 43.6812 5.83747C44.525 6.6809 44.9994 7.82492 45 9.018V40.5023C44.9994 41.6953 44.525 42.8394 43.6812 43.6828C42.8373 44.5262 41.6931 45 40.5 45H4.5C3.30692 45 2.16266 44.5262 1.31881 43.6828C0.474966 42.8394 0.000596542 41.6953 0 40.5023L0 9.018C0.000596542 7.82492 0.474966 6.6809 1.31881 5.83747C2.16266 4.99405 3.30692 4.52025 4.5 4.52025H11.1892V1.57275C11.1898 1.15542 11.356 0.755394 11.6514 0.460511C11.9467 0.165628 12.3469 -4.25843e-07 12.7642 0V0ZM3.15 17.4195V40.5023C3.15 40.6795 3.18492 40.8551 3.25276 41.0189C3.32061 41.1827 3.42005 41.3315 3.54541 41.4568C3.67076 41.5822 3.81959 41.6816 3.98338 41.7495C4.14717 41.8173 4.32272 41.8522 4.5 41.8522H40.5C40.6773 41.8522 40.8528 41.8173 41.0166 41.7495C41.1804 41.6816 41.3292 41.5822 41.4546 41.4568C41.58 41.3315 41.6794 41.1827 41.7472 41.0189C41.8151 40.8551 41.85 40.6795 41.85 40.5023V17.451L3.15 17.4195ZM15.0007 32.8927V36.6413H11.25V32.8927H15.0007ZM24.3743 32.8927V36.6413H20.6257V32.8927H24.3743ZM33.75 32.8927V36.6413H29.9993V32.8927H33.75ZM15.0007 23.9445V27.693H11.25V23.9445H15.0007ZM24.3743 23.9445V27.693H20.6257V23.9445H24.3743ZM33.75 23.9445V27.693H29.9993V23.9445H33.75ZM11.1892 7.668H4.5C4.32272 7.668 4.14717 7.70292 3.98338 7.77076C3.81959 7.83861 3.67076 7.93805 3.54541 8.06341C3.42005 8.18876 3.32061 8.33759 3.25276 8.50138C3.18492 8.66517 3.15 8.84072 3.15 9.018V14.2717L41.85 14.3032V9.018C41.85 8.84072 41.8151 8.66517 41.7472 8.50138C41.6794 8.33759 41.58 8.18876 41.4546 8.06341C41.3292 7.93805 41.1804 7.83861 41.0166 7.77076C40.8528 7.70292 40.6773 7.668 40.5 7.668H34.4025V9.75825C34.4025 10.176 34.2366 10.5766 33.9412 10.8719C33.6458 11.1673 33.2452 11.3333 32.8275 11.3333C32.4098 11.3333 32.0092 11.1673 31.7138 10.8719C31.4184 10.5766 31.2525 10.176 31.2525 9.75825V7.668H14.3393V9.738C14.3393 10.1557 14.1733 10.5563 13.8779 10.8517C13.5826 11.1471 13.182 11.313 12.7642 11.313C12.3465 11.313 11.9459 11.1471 11.6506 10.8517C11.3552 10.5563 11.1892 10.1557 11.1892 9.738V7.668Z" fill="#555555"/>
</g>
<defs>
<clipPath id="clip0_6_173">
<rect width="45" height="45" fill="white"/>
</clipPath>
</defs>
</svg>
