<svg width="45" height="45" viewBox="0 0 45 45" fill="none" xmlns="http://www.w3.org/2000/svg">
<path d="M18.2156 22.5C20.3737 22.5 21.9656 20.9081 21.9656 18.75C21.9656 16.5919 20.3737 15 18.2156 15C16.0575 15 14.4656 16.5919 14.4656 18.75C14.4656 20.9081 16.0556 22.5 18.2156 22.5Z" fill="#555555"/>
<path d="M37.5 7.5H7.5C5.43187 7.5 3.75 9.07687 3.75 11.0156V33.9844C3.75 35.9231 5.43187 37.5 7.5 37.5H37.5C39.5681 37.5 41.25 35.9231 41.25 33.9844V11.0156C41.25 9.07687 39.5681 7.5 37.5 7.5ZM37.5 33.75L7.5 33.7294V11.25L37.5 11.2706V33.75Z" fill="#555555"/>
<path d="M26.25 16.875H33.75V20.625H26.25V16.875ZM28.125 24.375H33.75V28.125H28.125V24.375ZM25.1813 29.13C25.1813 26.5538 22.0388 23.9062 18.2156 23.9062C14.3925 23.9062 11.25 26.5538 11.25 29.13V30H25.1813V29.13Z" fill="#555555"/>
</svg>
