<svg width="45" height="45" viewBox="0 0 45 45" fill="none" xmlns="http://www.w3.org/2000/svg">
<path d="M22.5 24.375C25.6066 24.375 28.125 21.8566 28.125 18.75C28.125 15.6434 25.6066 13.125 22.5 13.125C19.3934 13.125 16.875 15.6434 16.875 18.75C16.875 21.8566 19.3934 24.375 22.5 24.375Z" stroke="#555555" stroke-width="2" stroke-linecap="round" stroke-linejoin="round"/>
<path d="M22.5 3.75C18.5218 3.75 14.7064 5.33035 11.8934 8.1434C9.08035 10.9564 7.5 14.7718 7.5 18.75C7.5 22.2975 8.25375 24.6187 10.3125 27.1875L22.5 41.25L34.6875 27.1875C36.7463 24.6187 37.5 22.2975 37.5 18.75C37.5 14.7718 35.9196 10.9564 33.1066 8.1434C30.2936 5.33035 26.4782 3.75 22.5 3.75V3.75Z" stroke="#555555" stroke-width="2" stroke-linecap="round" stroke-linejoin="round"/>
</svg>
