<svg width="440" height="354" viewBox="0 0 440 354" fill="none" xmlns="http://www.w3.org/2000/svg">
<g clip-path="url(#clip0_6_87)">
<path d="M422.686 308.905H0V313.566H422.686V308.905Z" fill="#3F3D56"/>
<path d="M422.686 348.521H0V353.182H422.686V348.521Z" fill="#3F3D56"/>
<path d="M386.223 313.193C385.971 312.78 380.014 302.835 377.949 282.182C376.055 263.235 377.273 231.297 393.836 186.747C425.215 102.35 386.605 34.254 386.211 33.5757L388.115 32.4706C388.215 32.6426 398.178 50.0044 404.064 77.6506C411.84 114.303 409.008 152.414 395.9 187.515C364.576 271.768 387.864 311.652 388.102 312.046L386.223 313.193Z" fill="#3F3D56"/>
<path d="M373.954 28.62C381.857 28.62 388.264 22.2132 388.264 14.31C388.264 6.40681 381.857 0 373.954 0C366.051 0 359.644 6.40681 359.644 14.31C359.644 22.2132 366.051 28.62 373.954 28.62Z" fill="#3F3D56"/>
<path d="M419.085 81.457C426.989 81.457 433.395 75.0502 433.395 67.147C433.395 59.2438 426.989 52.837 419.085 52.837C411.182 52.837 404.775 59.2438 404.775 67.147C404.775 75.0502 411.182 81.457 419.085 81.457Z" fill="#3F3D56"/>
<path d="M388.264 116.682C396.167 116.682 402.574 110.275 402.574 102.372C402.574 94.4684 396.167 88.0616 388.264 88.0616C380.36 88.0616 373.954 94.4684 373.954 102.372C373.954 110.275 380.36 116.682 388.264 116.682Z" fill="#FFCA64"/>
<path d="M425.69 146.402C433.593 146.402 440 139.996 440 132.092C440 124.189 433.593 117.782 425.69 117.782C417.786 117.782 411.38 124.189 411.38 132.092C411.38 139.996 417.786 146.402 425.69 146.402Z" fill="#FFCA64"/>
<path d="M377.256 192.635C385.159 192.635 391.566 186.228 391.566 178.325C391.566 170.422 385.159 164.015 377.256 164.015C369.353 164.015 362.946 170.422 362.946 178.325C362.946 186.228 369.353 192.635 377.256 192.635Z" fill="#3F3D56"/>
<path d="M394.869 313.72C394.869 313.72 380.559 278.495 423.488 252.076L394.869 313.72Z" fill="#3F3D56"/>
<path d="M377.269 313.081C377.269 313.081 370.757 275.622 320.35 275.943L377.269 313.081Z" fill="#3F3D56"/>
<path d="M70.276 220.61C81.9339 220.61 91.3846 211.159 91.3846 199.501C91.3846 187.844 81.9339 178.393 70.276 178.393C58.6181 178.393 49.1674 187.844 49.1674 199.501C49.1674 211.159 58.6181 220.61 70.276 220.61Z" fill="#A0616A"/>
<path d="M74.1004 173.246C70.0636 172.255 65.7227 172.09 61.8119 173.498C57.7841 174.949 54.4687 177.982 52.0301 181.5C49.5915 185.019 47.9537 189.024 46.4866 193.046C45.631 195.239 44.9687 197.502 44.5073 199.811C43.9812 202.888 44.0825 206.039 44.805 209.076C45.5276 212.113 46.8565 214.972 48.712 217.483C48.0938 215.853 49.6501 214.076 51.3571 213.723C53.0641 213.37 54.803 213.967 56.4864 214.419C59.4527 215.215 62.5189 215.576 65.5888 215.489C66.7648 215.456 67.9977 215.338 68.9757 214.684C72.0398 212.635 70.4179 207.34 72.9676 204.678C73.8776 203.728 75.176 203.284 76.3488 202.688C80.5707 200.543 83.3528 196.214 84.6663 191.664C85.4895 188.812 87.5325 180.621 85.7912 177.97C84.2176 175.574 76.7731 173.903 74.1004 173.246Z" fill="#2F2E41"/>
<path d="M127.715 176.226C126.156 175.678 124.504 175.444 122.854 175.536C121.204 175.628 119.588 176.045 118.099 176.762C112.593 179.344 102.856 185.6 103.226 197.442C103.741 213.917 109.404 224.729 109.404 224.729L108.374 258.193L103.226 318.945C103.226 318.945 77.9986 339.539 87.7806 344.687C97.5626 349.835 114.038 319.975 114.038 319.975L126.909 285.48L131.542 252.015C131.542 252.015 139.265 217.006 131.542 201.561C131.542 201.561 140.464 180.879 127.715 176.226Z" fill="#A0616A"/>
<path d="M189.205 229.362C189.205 229.362 180.452 266.431 211.343 276.728C242.233 287.024 282.906 304.529 282.906 304.529L288.054 313.281L299.896 297.321L297.836 284.965L277.758 279.302C277.758 279.302 240.174 250.471 223.699 248.411L225.758 229.362H189.205Z" fill="#A0616A"/>
<path d="M271.48 199.613L282.391 217.521C282.391 217.521 318.43 238.115 327.697 252.015C336.964 265.916 359.102 280.847 359.102 280.847L349.32 304.014C349.32 304.014 321.519 271.579 309.678 268.49C297.836 265.401 245.322 223.184 245.322 223.184L271.48 199.613Z" fill="#A0616A"/>
<path d="M174.309 136.855C170.291 137.486 166.269 138.118 162.298 139.004C153.073 141.061 144.203 144.469 135.544 148.258C123.426 153.56 111.655 159.624 100.304 166.415C97.2428 168.163 94.3219 170.146 91.5678 172.347C89.7351 173.873 88.0097 175.623 87.0267 177.796C86.4025 179.313 85.9986 180.912 85.8273 182.544C85.029 188.269 85.0662 194.176 86.6173 199.745C88.1684 205.313 91.3145 210.533 95.9454 213.992C97.1708 214.937 98.5318 215.692 99.9824 216.231C101.934 216.826 103.954 217.165 105.993 217.238C112.489 217.755 119.275 218.228 125.286 215.713C129.106 214.114 132.34 211.411 135.855 209.222C150.74 199.95 169.652 200.345 185.929 193.818C187.511 193.183 189.122 192.443 190.229 191.146C191.067 190.034 191.698 188.781 192.093 187.446C194.151 181.75 196.208 176.055 198.266 170.359C199.57 166.751 200.875 163.139 201.969 159.462C203.114 155.615 204.026 151.703 204.938 147.795C205.722 144.431 206.53 140.908 206.229 137.431C205.784 132.302 204.598 132.094 199.888 132.836C191.362 134.18 182.836 135.519 174.309 136.855Z" fill="#FFCA64"/>
<path d="M112.27 176.226C110.711 175.678 109.059 175.444 107.409 175.536C105.758 175.628 104.143 176.045 102.654 176.762C97.1479 179.344 87.4106 185.6 87.7806 197.442C88.2955 213.917 93.9587 224.729 93.9587 224.729L92.9291 258.193L87.7806 318.945C87.7806 318.945 62.5533 339.539 72.3354 344.687C82.1174 349.835 98.5923 319.975 98.5923 319.975L111.463 285.48L116.097 252.015C116.097 252.015 123.82 217.006 116.097 201.561C116.097 201.561 125.018 180.879 112.27 176.226Z" fill="#A0616A"/>
<path d="M201.643 132.594C201.643 132.594 247.382 128.453 245.322 156.769C243.263 185.086 227.818 233.996 227.818 233.996L188.175 236.055C188.175 236.055 183.027 202.59 190.234 191.264L201.643 132.594Z" fill="#2F2E41"/>
<path d="M233.481 141.839C233.481 141.839 244.808 149.047 250.986 163.462C257.164 177.878 275.698 206.194 275.698 206.194L245.322 227.818L222.669 204.65L233.481 141.839Z" fill="#2F2E41"/>
<path d="M288.054 302.47C288.054 302.47 278.272 306.074 284.965 313.282C289.077 317.754 292.542 322.78 295.262 328.212C295.262 328.212 293.203 341.598 301.955 341.083C310.707 340.568 314.311 322.549 312.252 316.371C310.193 310.193 307.618 280.846 307.618 280.846C307.618 280.846 289.599 282.391 290.114 284.965C290.629 287.539 293.203 300.411 288.054 302.47Z" fill="#2F2E41"/>
<path d="M349.32 292.173C349.32 292.173 340.053 296.807 342.627 300.925C345.202 305.044 353.439 316.886 353.439 316.886C353.439 316.886 350.35 332.331 359.103 333.875C367.855 335.42 373.004 315.341 371.459 311.222C369.914 307.104 369.914 291.143 369.914 291.143C369.914 291.143 370.429 275.183 365.281 275.183C360.132 275.183 351.38 277.243 351.38 277.243C351.38 277.243 353.439 291.658 349.32 292.173Z" fill="#2F2E41"/>
<path d="M64.3553 318.106H49.4249V344.164H64.3553V318.106Z" fill="#FFCA64"/>
</g>
<defs>
<clipPath id="clip0_6_87">
<rect width="440" height="353.182" fill="white"/>
</clipPath>
</defs>
</svg>
