<svg width="45" height="45" viewBox="0 0 45 45" fill="none" xmlns="http://www.w3.org/2000/svg">
<path d="M37.7271 33.5566C36.8981 31.593 35.6951 29.8094 34.1851 28.3052C32.6796 26.7966 30.8963 25.5938 28.9336 24.7632C28.916 24.7544 28.8984 24.75 28.8809 24.7412C31.6187 22.7637 33.3984 19.5425 33.3984 15.9082C33.3984 9.8877 28.5205 5.00977 22.5 5.00977C16.4795 5.00977 11.6016 9.8877 11.6016 15.9082C11.6016 19.5425 13.3814 22.7637 16.1191 24.7456C16.1016 24.7544 16.084 24.7588 16.0664 24.7676C14.0977 25.5981 12.3311 26.7891 10.8149 28.3096C9.30634 29.815 8.10354 31.5983 7.27295 33.561C6.45699 35.4826 6.01692 37.5427 5.97657 39.6299C5.97539 39.6768 5.98362 39.7234 6.00076 39.7671C6.0179 39.8108 6.04361 39.8506 6.07638 39.8842C6.10914 39.9178 6.14829 39.9444 6.19153 39.9627C6.23477 39.9809 6.28121 39.9902 6.32813 39.9902H8.96485C9.15821 39.9902 9.31201 39.8364 9.31641 39.6475C9.4043 36.2549 10.7666 33.0776 13.1748 30.6694C15.6665 28.1777 18.9756 26.8066 22.5 26.8066C26.0244 26.8066 29.3335 28.1777 31.8252 30.6694C34.2334 33.0776 35.5957 36.2549 35.6836 39.6475C35.688 39.8408 35.8418 39.9902 36.0352 39.9902H38.6719C38.7188 39.9902 38.7652 39.9809 38.8085 39.9627C38.8517 39.9444 38.8909 39.9178 38.9236 39.8842C38.9564 39.8506 38.9821 39.8108 38.9992 39.7671C39.0164 39.7234 39.0246 39.6768 39.0234 39.6299C38.9795 37.5293 38.5444 35.4858 37.7271 33.5566ZM22.5 23.4668C20.4829 23.4668 18.5845 22.6802 17.1563 21.252C15.728 19.8237 14.9414 17.9253 14.9414 15.9082C14.9414 13.8911 15.728 11.9927 17.1563 10.5645C18.5845 9.13623 20.4829 8.34961 22.5 8.34961C24.5171 8.34961 26.4155 9.13623 27.8438 10.5645C29.272 11.9927 30.0586 13.8911 30.0586 15.9082C30.0586 17.9253 29.272 19.8237 27.8438 21.252C26.4155 22.6802 24.5171 23.4668 22.5 23.4668Z" fill="#555555"/>
</svg>
